# xmcd
#
# Track frame offsets: 
#        150
#        10930
#        20627
#        32112
#        44593
#        57561
#        67332
#        78900
#        88943
#        100573
#        109294
#        121336
#        130202
#        140471
#        150832
#        159416
#        170707
#        181279
#        194782
#        205411
#        219034
#        230874
#        240964
#        253104
#        265804
#        277007
#        288884
#        300998
#        311290
#
# Disc length: 4293 seconds
#
# Revision: 0
# Processed by: cddbd v1.5.1PL0 Copyright (c) Steve Scherf et al.
# Submitted via: ExactAudioCopy v0.95a5
#
DISCID=a110c31d
DTITLE=Various Artist - The 'D' Singles Volume 5 - Disc 3
DYEAR=2002
DGENRE=Country
TTITLE0=Red River Dave - We앏l Bury You
TTITLE1=Red River Dave - Moon Over The Woall (In East Berlin)
TTITLE2=Booth Kinner - How I Wish I Was Him
TTITLE3=Booth Kinner - Aisle Of I Do
TTITLE4=Billy Western - My Blue Room
TTITLE5=Billy Western - Say When (You Want Me To Leave)
TTITLE6=Hank Roby - Might As Well Stick With You
TTITLE7=Hank Roby - Wasted Love
TTITLE8=Johnny Nelms - I앐 So Ashamed
TTITLE9=Johnny Nelms - The Sulphur Queen
TTITLE10=Johnny Nelms - Blue Tomorrow
TTITLE11=Tex Wayne - Angel With A Ponytail
TTITLE12=Tex Wayne - Standing At The Crossroads
TTITLE13=Booth Kinner - Walking Right Out Of My Mind
TTITLE14=Booth Kinner - I았e Got A Feeling
TTITLE15=Betty Riddle - I았e Been Wrong Before
TTITLE16=Walt Riddle - Don앖 Back Out Now
TTITLE17=Jack Newman - Daddy압 Baby
TTITLE18=Jack Newman - Ship For Lonely Men
TTITLE19=Billy Western - Home압 Not Where My House Is
TTITLE20=Billy Western - Love Enough
TTITLE21=Hank Roby - Anna Anna
TTITLE22=Hank Roby - Let압 Pretend
TTITLE23=Audrey Harrison - Broken Love Affair
TTITLE24=Danny Harrison - Have I Wasted My Life
TTITLE25=Jimmy Dry - I Know
TTITLE26=Jimmy Dry - Incidentally
TTITLE27=Tex Wayne - She압 Liying Again
TTITLE28=Tex Wayne - My Party압 Over
EXTD=
EXTT0=
EXTT1=
EXTT2=
EXTT3=
EXTT4=
EXTT5=
EXTT6=
EXTT7=
EXTT8=
EXTT9=
EXTT10=
EXTT11=
EXTT12=
EXTT13=
EXTT14=
EXTT15=
EXTT16=
EXTT17=
EXTT18=
EXTT19=
EXTT20=
EXTT21=
EXTT22=
EXTT23=
EXTT24=
EXTT25=
EXTT26=
EXTT27=
EXTT28=
PLAYORDER=
